{"title":"Formula 1 Spain Pre Race Build Up Hd 1080p H264 AC3 DD","uid":6416184,"size":1082063469,"categoryP":"video","categoryS":"hd___tv_shows","magnet":"?xt=urn:btih:98439e1ca080eea4d94fac8b40dbed9a41ab5176&amp;dn=Formula+1+Spain+Pre+Race+Build+Up+Hd+1080p+H264+AC3+DD&amp;tr=udp%3A%2F%2Ftracker.openbittorrent.com%3A80&amp;tr=udp%3A%2F%2Fopen.demonii.com%3A1337&amp;tr=udp%3A%2F%2Ftracker.coppersurfer.tk%3A6969&amp;tr=udp%3A%2F%2Fexodus.desync.com%3A6969","seeders":0,"leechers":1,"uploader":"jorrell0733","files":3,"time":1306169452,"description":"\nFormula One 2011 Season\n\nSpanish Grand Prix Pre Race Build Up in High Definition\n\nRace 5: Spanish Grand Prix, Curcuit De Catalunya\n\nRecord Source: BBC One HD\nOriginal Format: MPEG TS Stream\nDate: Sunday 22nd May 2011\nTime: 12:10 to 15:15\n\nJake Humphrey, Martin Brundle, David Coulthard &amp; Eddie Jordan present the F1 coverage to the 5th Race\nmeeting of the 2011 Formula One season, The Spanish Grand Prix, from the Curcuit De Catalunya\n\nThis is the Pre Race Build Up Only, which was missing from my torrent yesterday due to a MFT failure. Enjoy..\n\nComplete name                    : F1 2011 Spain Race Buiod Up 1080.H264.AC3.DD.mkv\nFormat                           : Matroska\nFile size                        : 1.01 GiB\nDuration                         : 45mn 10s\nOverall bit rate                 : 3 194 Kbps\nWriting application              : HandBrake 0.9.5\nWriting library                  : libmkv 0.6.4.1\n\nVideo\nID                               : 1\nFormat                           : AVC\nFormat/Info                      : Advanced Video Codec\nFormat profile                   : &lt;a class=&quot;__cf_email__&quot; href=&quot;/cdn-cgi/l/email-protection&quot; data-cfemail=&quot;b8f5d9d1d6f8f48c9688&quot;&gt;[email&amp;#160;protected]&lt;/a&gt;&lt;script cf-hash='f9e31' type=&quot;text/javascript&quot;&gt;\n/* &lt;![CDATA[ */!function(){try{var t=&quot;currentScript&quot;in document?document.currentScript:function(){for(var t=document.getElementsByTagName(&quot;script&quot;),e=t.length;e--;)if(t[e].getAttribute(&quot;cf-hash&quot;))return t[e]}();if(t&amp;&amp;t.previousSibling){var e,r,n,i,c=t.previousSibling,a=c.getAttribute(&quot;data-cfemail&quot;);if(a){for(e=&quot;&quot;,r=parseInt(a.substr(0,2),16),n=2;a.length-n;n+=2)i=parseInt(a.substr(n,2),16)^r,e+=String.fromCharCode(i);e=document.createTextNode(e),c.parentNode.replaceChild(e,c)}}}catch(u){}}();/* ]]&gt; */&lt;/script&gt;\nFormat settings, CABAC           : Yes\nFormat settings, ReFrames        : 4 frames\nCodec ID                         : V_MPEG4/ISO/AVC\nDuration                         : 45mn 10s\nBit rate                         : 3 050 Kbps\nWidth                            : 1 440 pixels\nHeight                           : 1 080 pixels\nDisplay aspect ratio             : 16:9\nFrame rate mode                  : Variable\nFrame rate                       : 25.000 fps\nColor space                      : YUV\nChroma subsampling               : 4:2:0\nBit depth                        : 8 bits\nScan type                        : Progressive\nBits/(Pixel*Frame)               : 0.078\nStream size                      : 970 MiB (94%)\nWriting library                  : x264 core 112\nEncoding settings                : cabac=1 / ref=2 / deblock=1:0:0 / analyse=0x1:0x111 / me=hex / subme=6 / psy=1 / psy_rd=1.00:0.00 / mixed_ref=0 / me_range=16 / chroma_me=1 / trellis=0 / 8x8dct=0 / cqm=0 / deadzone=21,11 / fast_pskip=1 / chroma_qp_offset=-2 / threads=3 / sliced_threads=0 / nr=0 / decimate=1 / interlaced=0 / constrained_intra=0 / bframes=2 / b_pyramid=2 / b_adapt=1 / b_bias=0 / direct=1 / weightb=0 / open_gop=0 / weightp=2 / keyint=250 / keyint_min=25 / scenecut=40 / intra_refresh=0 / rc_lookahead=40 / rc=abr / mbtree=1 / bitrate=3050 / ratetol=1.0 / qcomp=0.60 / qpmin=3 / qpmax=51 / qpstep=4 / ip_ratio=1.40 / aq=1:1.00\nLanguage                         : English\nColor primaries                  : BT.709-5, BT.1361, IEC 61966-2-4, SMPTE RP177\nTransfer characteristics         : BT.709-5, BT.1361\nMatrix coefficients              : BT.709-5, BT.1361, IEC 61966-2-4 709, SMPTE RP177\n\nAudio\nID                               : 2\nFormat                           : AC-3\nFormat/Info                      : Audio Coding 3\nMode extension                   : CM (complete main)\nCodec ID                         : A_AC3\nDuration                         : 45mn 10s\nBit rate mode                    : Constant\nBit rate                         : 128 Kbps\nChannel(s)                       : 2 channels\nChannel positions                : Front: L R\nSampling rate                    : 48.0 KHz\nBit depth                        : 16 bits\nCompression mode                 : Lossy\nStream size                      : 41.4 MiB (4%)\nLanguage                         : English\n\n\n\n\n\n\nEnjoy, The Blacknight\n","torrent":{"xt":"urn:btih:98439e1ca080eea4d94fac8b40dbed9a41ab5176","amp;dn":"Formula+1+Spain+Pre+Race+Build+Up+Hd+1080p+H264+AC3+DD","amp;tr":["udp%3A%2F%2Ftracker.openbittorrent.com%3A80","udp%3A%2F%2Fopen.demonii.com%3A1337","udp%3A%2F%2Ftracker.coppersurfer.tk%3A6969","udp%3A%2F%2Fexodus.desync.com%3A6969"],"infoHash":"98439e1ca080eea4d94fac8b40dbed9a41ab5176","infoHashBuffer":{"type":"Buffer","data":[152,67,158,28,160,128,238,164,217,79,172,139,64,219,237,154,65,171,81,118]},"announce":[],"urlList":[]}}